<svg width="16" height="18" viewBox="0 0 16 18" fill="none" xmlns="http://www.w3.org/2000/svg">
<path d="M8.39804 16.804L8.62825 17.2478L8.39804 16.804ZM7.60196 16.804L7.37175 17.2478H7.37175L7.60196 16.804ZM14.5 8C14.5 10.327 13.3141 12.2164 11.9 13.6426C10.4865 15.0684 8.88685 15.9872 8.16782 16.3601L8.62825 17.2478C9.39216 16.8516 11.0935 15.8765 12.6102 14.3467C14.1264 12.8173 15.5 10.6894 15.5 8H14.5ZM8 1.5C11.5899 1.5 14.5 4.41015 14.5 8H15.5C15.5 3.85786 12.1421 0.5 8 0.5V1.5ZM1.5 8C1.5 4.41015 4.41015 1.5 8 1.5V0.5C3.85786 0.5 0.5 3.85786 0.5 8H1.5ZM7.83218 16.3601C7.11315 15.9872 5.51351 15.0684 4.09996 13.6426C2.68593 12.2164 1.5 10.327 1.5 8H0.5C0.5 10.6894 1.87358 12.8173 3.38981 14.3467C4.9065 15.8765 6.60784 16.8516 7.37175 17.2478L7.83218 16.3601ZM8.16782 16.3601C8.0593 16.4164 7.9407 16.4164 7.83218 16.3601L7.37175 17.2478C7.76896 17.4538 8.23104 17.4538 8.62825 17.2478L8.16782 16.3601ZM10.5 8C10.5 9.38071 9.38071 10.5 8 10.5V11.5C9.933 11.5 11.5 9.933 11.5 8H10.5ZM8 5.5C9.38071 5.5 10.5 6.61929 10.5 8H11.5C11.5 6.067 9.933 4.5 8 4.5V5.5ZM5.5 8C5.5 6.61929 6.61929 5.5 8 5.5V4.5C6.067 4.5 4.5 6.067 4.5 8H5.5ZM8 10.5C6.61929 10.5 5.5 9.38071 5.5 8H4.5C4.5 9.933 6.067 11.5 8 11.5V10.5Z" fill="#404040"/>
</svg>
