<svg width="29" height="29" viewBox="0 0 29 29" fill="none" xmlns="http://www.w3.org/2000/svg">
<path d="M27.6406 18.5781V5.4375C27.6406 4.18823 26.6243 3.17187 25.375 3.17187V1.35937H24.4687V3.17187H23.5625V0.453125H22.6562V3.17187H21.75V1.35937H20.8437V3.17187H19.9375C18.6882 3.17187 17.6719 4.18823 17.6719 5.4375V9.51562H15.4062C14.157 9.51562 13.1406 10.532 13.1406 11.7812V12.2344H12.6875C11.4382 12.2344 10.4219 13.2507 10.4219 14.5V18.5781H9.85139C9.55822 16.8105 9.3457 15.0193 9.21702 13.238L10.74 11.7151L10.2157 10.6666L11.3281 10.2955V7.83L10.2157 7.45889L10.74 6.41036L8.99634 4.66673L7.94736 5.19145L7.5767 4.07812H5.11125L4.74059 5.191L3.69161 4.66628L1.94798 6.40991L2.47225 7.45844L1.35937 7.82955V10.295L2.4718 10.6661L1.94753 11.7146L3.46958 13.2367C3.31234 15.4198 3.03367 17.6121 2.63039 19.7612L2.5085 20.4133L0.453125 22.4687V28.5469H28.5469V18.5781H27.6406ZM15.8594 14.9531V15.8594H11.3281V14.9531H15.8594ZM27.6406 19.4844V20.3906H3.81259L4.71884 19.4844H27.6406ZM20.3906 18.5781V16.7656H24.9219V18.5781H20.3906ZM20.3906 14.9531H24.9219V15.8594H20.3906V14.9531ZM20.474 14.0469C20.6616 13.5208 21.16 13.1406 21.75 13.1406H23.5625C24.1525 13.1406 24.6509 13.5208 24.8385 14.0469H20.474ZM23.5625 12.2344H23.1094V11.7812C23.1094 11.6263 23.0935 11.4745 23.0636 11.3281H24.0156V12.2801C23.8693 12.2502 23.7175 12.2344 23.5625 12.2344ZM22.2031 5.89062H24.0156V6.79687H22.2031V5.89062ZM22.2031 7.70312H24.0156V8.60937H22.2031V7.70312ZM24.0156 4.98437H22.2031V4.07812H24.0156V4.98437ZM22.2031 9.51562H24.0156V10.4219H22.6445C22.518 10.2547 22.3699 10.107 22.2031 9.98053V9.51562ZM22.2031 11.7812V12.2344H21.75C20.5007 12.2344 19.4844 13.2507 19.4844 14.5V18.5781H18.5781V10.4219H20.8437C21.5932 10.4219 22.2031 11.0318 22.2031 11.7812ZM26.7344 5.4375V18.5781H25.8281V14.5C25.8281 13.7628 25.4688 13.113 24.9219 12.6993V4.07812H25.375C26.1245 4.07812 26.7344 4.68803 26.7344 5.4375ZM18.5781 5.4375C18.5781 4.68803 19.188 4.07812 19.9375 4.07812H21.2969V9.56139C21.1505 9.53148 20.9987 9.51562 20.8437 9.51562H18.5781V5.4375ZM14.0469 11.7812C14.0469 11.0318 14.6568 10.4219 15.4062 10.4219H17.6719V18.5781H16.7656V14.5C16.7656 13.2507 15.7493 12.2344 14.5 12.2344H14.0469V11.7812ZM12.6875 13.1406H14.5C15.09 13.1406 15.5884 13.5208 15.776 14.0469H11.412C11.5991 13.5208 12.0975 13.1406 12.6875 13.1406ZM11.3281 16.7656H15.8594V18.5781H11.3281V16.7656ZM3.45191 10.3607C3.42653 10.3041 3.40433 10.247 3.38167 10.189L3.30509 9.98914L2.26562 9.64205V8.4825L3.30509 8.13586L3.38167 7.93603C3.40433 7.87803 3.42698 7.82048 3.45191 7.7643L3.53981 7.56809L3.04998 6.58844L3.86969 5.76873L4.84934 6.25856L5.04555 6.17066C5.10128 6.14573 5.15792 6.12308 5.21547 6.10133L5.41711 6.0252L5.7642 4.98437H6.92375L7.27084 6.02566L7.47248 6.10178C7.53003 6.12353 7.58667 6.14619 7.64241 6.17111L7.83861 6.25902L8.81826 5.76919L9.63797 6.58889L9.14814 7.56855L9.23605 7.76475C9.26142 7.82139 9.28362 7.87848 9.30628 7.93648L9.38286 8.13631L10.4219 8.48295V9.6425L9.38241 9.98914L9.30583 10.189C9.28317 10.247 9.26052 10.3045 9.23559 10.3607L9.14769 10.5569L9.63752 11.5366L8.81781 12.3563L7.83816 11.8664L7.64195 11.9543C7.58622 11.9793 7.52958 12.0019 7.47203 12.0237L7.27039 12.0998L6.9233 13.1406H5.76375L5.41666 12.0993L5.21502 12.0232C5.15747 12.0015 5.10083 11.9788 5.04509 11.9539L4.84889 11.866L3.86969 12.3563L3.04998 11.5366L3.53981 10.5569L3.45191 10.3607ZM4.38852 13.1098L4.74014 12.934L5.1108 14.0469H7.57625L7.94691 12.934L8.29762 13.1094C8.42314 14.9323 8.63747 16.767 8.93336 18.5777H4.34366L3.63044 19.2909C3.99022 17.2496 4.24623 15.1756 4.38852 13.1098ZM1.35937 22.8438L2.90634 21.2969H27.6406V22.2031H13.1406V27.6406H12.2344V23.1094H9.51562V27.6406H8.60937V23.1094H5.89062V27.6406H4.98437V23.1094H2.26562V27.6406H1.35937V22.8438ZM20.3906 23.1094V24.9219H17.6719V23.1094H20.3906ZM16.7656 24.9219H14.0469V23.1094H16.7656V24.9219ZM14.0469 25.8281H16.7656V27.6406H14.0469V25.8281ZM17.6719 25.8281H20.3906V27.6406H17.6719V25.8281ZM21.2969 25.8281H24.0156V27.6406H21.2969V25.8281ZM21.2969 24.9219V23.1094H24.0156V24.9219H21.2969ZM24.9219 23.1094H27.6406V24.9219H24.9219V23.1094ZM11.3281 27.6406H10.4219V24.0156H11.3281V27.6406ZM7.70312 27.6406H6.79687V24.0156H7.70312V27.6406ZM4.07812 27.6406H3.17187V24.0156H4.07812V27.6406ZM24.9219 27.6406V25.8281H27.6406V27.6406H24.9219Z" fill="white" fill-opacity="0.5"/>
</svg>
