<svg width="27" height="29" viewBox="0 0 27 29" fill="none" xmlns="http://www.w3.org/2000/svg">
<path d="M26.292 5.72779H12.074C11.7865 4.5777 10.7447 3.72305 9.50682 3.72305H9.32257L7.86798 0.28496C7.79491 0.112205 7.62556 0 7.43802 0C7.25048 0 7.08113 0.112262 7.00806 0.28496L5.55347 3.72305H4.43085C4.17297 3.72305 3.96396 3.93211 3.96396 4.18994V5.72774H0.707856C0.449971 5.72774 0.240967 5.9368 0.240967 6.19463V9.91779C0.240967 10.1756 0.449971 10.3847 0.707856 10.3847H3.96408V11.4452C3.96408 11.7031 4.17308 11.9121 4.43097 11.9121H5.10963V25.5842H1.94885C1.69097 25.5842 1.48197 25.7933 1.48197 26.0511V28.5332C1.48197 28.791 1.69097 29.0001 1.94885 29.0001H8.45778C8.71567 29.0001 8.92467 28.791 8.92467 28.5332C8.92467 28.2753 8.71567 28.0663 8.45778 28.0663H2.41574V26.518H12.4603V28.0663H9.95179C9.69391 28.0663 9.48491 28.2753 9.48491 28.5332C9.48491 28.791 9.69391 29.0001 9.95179 29.0001H12.9272C13.1851 29.0001 13.3941 28.791 13.3941 28.5332V26.0511C13.3941 25.7933 13.1851 25.5842 12.9272 25.5842H9.76647V11.9121H11.6862C11.9441 11.9121 12.1531 11.703 12.1531 11.4452V10.3846H23.5341V14.6205H23.254C22.9961 14.6205 22.7871 14.8296 22.7871 15.0874C22.7871 15.3452 22.9961 15.5543 23.254 15.5543H23.5341V16.7434C23.5341 17.0012 23.7431 17.2103 24.001 17.2103C24.4673 17.2103 24.8467 17.5897 24.8467 18.056C24.8467 18.5223 24.4673 18.9018 24.001 18.9018C23.5346 18.9018 23.1552 18.5223 23.1552 18.056C23.1552 17.7982 22.9462 17.5891 22.6883 17.5891C22.4304 17.5891 22.2214 17.7982 22.2214 18.056C22.2214 19.0372 23.0197 19.8355 24.001 19.8355C24.9823 19.8355 25.7805 19.0372 25.7805 18.056C25.7805 17.2363 25.2233 16.5442 24.4679 16.3386V15.5543H24.7479C25.0058 15.5543 25.2148 15.3452 25.2148 15.0874C25.2148 14.8296 25.0058 14.6205 24.7479 14.6205H24.4679V10.3846H26.2921C26.55 10.3846 26.759 10.1756 26.759 9.91774V6.19463C26.7589 5.9368 26.5499 5.72779 26.292 5.72779ZM1.17475 9.4509V7.32189L3.30376 9.4509H1.17475ZM3.96396 8.79059L1.83495 6.66157H3.96396V8.79059ZM7.43802 1.66518L8.3087 3.72311H6.5674L7.43802 1.66518ZM8.83263 25.5842H6.70362L8.83263 23.4552V25.5842ZM6.04336 24.924V19.7322L8.63926 22.3281L6.04336 24.924ZM8.83263 21.2009L6.23673 18.605L8.83263 16.0091V21.2009ZM6.04336 17.4778V12.5724L8.49607 15.0251L6.04336 17.4778ZM8.83263 14.0411L6.70362 11.9121H8.83263V14.0411ZM11.2193 8.84604H7.85711V7.46208C7.85711 7.20425 7.6481 6.99519 7.39022 6.99519C7.13233 6.99519 6.92333 7.20425 6.92333 7.46208V9.31293C6.92333 9.57076 7.13233 9.77982 7.39022 9.77982H11.2192V10.9783H4.89774V4.65689H6.92327V5.93691C6.92327 6.19474 7.13228 6.4038 7.39016 6.4038C7.64805 6.4038 7.85705 6.19474 7.85705 5.93691V4.65689H9.01161C9.01218 4.65689 9.01275 4.657 9.01331 4.657C9.01411 4.657 9.50682 4.65689 9.50682 4.65689C10.4511 4.65689 11.2192 5.42511 11.2192 6.36931V8.84604H11.2193ZM12.153 8.79059V6.66157H14.282L12.153 8.79059ZM12.8133 9.4509L15.2661 6.99819L17.7187 9.4509H12.8133ZM16.25 6.66157H21.4418L18.8459 9.25747L16.25 6.66157ZM19.9731 9.4509L22.569 6.855L25.1649 9.4509H19.9731ZM25.8251 8.79059L23.6961 6.66157H25.8251V8.79059Z" fill="white" fill-opacity="0.5"/>
</svg>
