<svg width="29" height="29" viewBox="0 0 29 29" fill="none" xmlns="http://www.w3.org/2000/svg">
<path d="M28.5752 23.8966C28.3405 23.8966 28.1504 24.0868 28.1504 24.3214V27.1599C28.1504 27.1993 28.1183 27.2314 28.0789 27.2314H26.4647V21.0249C26.4647 20.7903 26.2746 20.6001 26.0399 20.6001C25.8052 20.6001 25.6151 20.7903 25.6151 21.0249V27.2315H22.4959L23.3401 26.3027C23.4705 26.1593 23.532 25.9555 23.5046 25.7577C23.504 25.7534 23.5034 25.7492 23.5026 25.745L22.5536 20.1378L22.7283 19.8749L22.7737 19.9072C22.9294 20.0178 23.128 20.0582 23.3201 20.0102C23.5088 19.963 23.6669 19.8361 23.7538 19.6621V19.662L24.7195 17.7266L26.9253 18.5809C27.0124 18.6187 28.1502 19.1404 28.1502 20.4979V22.3389C28.1502 22.5736 28.3404 22.7638 28.575 22.7638C28.8097 22.7638 28.9998 22.5736 28.9998 22.339V20.4979C28.9998 18.5376 27.3185 17.8239 27.2469 17.7944C27.2442 17.7933 27.2415 17.7922 27.2388 17.7912L23.4826 16.3364V15.5627C24.0689 15.091 24.4807 14.4112 24.6044 13.6362C24.8968 13.5995 25.1681 13.4824 25.3932 13.2887C25.7161 13.0111 25.9014 12.6071 25.9014 12.1804C25.9014 11.8398 25.7832 11.5139 25.5715 11.255V10.1088C25.5715 7.86545 23.7464 6.04044 21.5032 6.04044C20.4961 6.04044 19.574 6.40905 18.8628 7.01749C18.8536 6.69197 18.7371 6.38181 18.534 6.1335V4.98726C18.534 2.74396 16.709 0.918945 14.4658 0.918945C12.2225 0.918945 10.3974 2.74402 10.3974 4.98726V6.1634C10.1933 6.40741 10.079 6.7016 10.0689 7.01386C9.61512 6.62604 9.072 6.33406 8.46668 6.17467C8.23944 6.11486 8.00738 6.2504 7.94763 6.47731C7.88787 6.70421 8.02336 6.9366 8.25026 6.99636C9.66134 7.36792 10.6469 8.64783 10.6469 10.1087V10.744C10.6285 10.7402 10.5696 10.7301 10.5674 10.7298C10.5616 10.6099 10.5312 10.5366 10.4659 10.4426C10.3571 10.2863 10.1618 10.0916 9.53368 9.41649C9.30983 9.17606 8.94779 9.13193 8.67297 9.3116C7.59708 10.0144 6.28999 10.3726 5.07697 10.3014C4.68185 10.2782 4.43507 10.4518 4.32988 10.7363C4.32048 10.7379 4.21541 10.759 4.20958 10.7605V10.1087C4.20958 8.7001 5.15083 7.43289 6.49848 7.02694C6.72312 6.95932 6.85039 6.72233 6.78276 6.49764C6.71507 6.27295 6.47775 6.14567 6.2534 6.21342C5.43381 6.46026 4.69708 6.97421 4.17911 7.66047C3.64312 8.3704 3.35986 9.21701 3.35986 10.1088V11.285C3.14587 11.5406 3.03015 11.8514 3.03015 12.1804C3.03015 12.9076 3.56597 13.5419 4.32937 13.6365C4.45444 14.3934 4.86508 15.1192 5.51316 15.6127V16.3367L1.76112 17.7913C1.75846 17.7923 1.7558 17.7934 1.75314 17.7945C1.68143 17.8239 0 18.5375 0 20.4979V27.1599C0 27.6679 0.413249 28.0811 0.921258 28.0811H14.0036C14.1864 28.0811 14.3565 28.0269 14.5 27.9347C14.6434 28.0269 14.8136 28.0811 14.9965 28.0811H28.0789C28.5868 28.0811 29.0001 27.6679 29.0001 27.1599V24.3214C29 24.0868 28.8099 23.8966 28.5752 23.8966ZM4.2878 12.7587C4.03875 12.6683 3.87965 12.438 3.87965 12.1803C3.87965 11.9303 4.0609 11.7249 4.2878 11.6275V12.7587ZM23.9238 17.4184L23.0899 19.0896C23.0898 19.0895 22.1637 18.4317 22.1505 18.4224C22.5501 17.9292 22.3624 18.1609 23.1932 17.1355L23.9238 17.4184ZM21.5364 17.8306L20.4378 16.4745V16.0669C20.7949 16.1904 21.1796 16.2474 21.5417 16.2475C21.5417 16.2475 21.5419 16.2475 21.5419 16.2475H21.542C21.9164 16.2475 22.2954 16.1764 22.633 16.0493V16.4771L21.5364 17.8306ZM22.0352 19.3827L21.8789 19.618H21.1941L21.0378 19.3827L21.5365 19.0286L22.0352 19.3827ZM14.4989 12.7091L13.4002 11.3529V10.9454C13.7559 11.0684 14.1402 11.1258 14.5042 11.126C14.5042 11.126 14.5043 11.126 14.5044 11.126H14.5044C14.8782 11.126 15.2571 11.0551 15.5955 10.9278V11.3555L14.4989 12.7091ZM14.9976 14.2613L14.8413 14.4965H14.1565L14.0002 14.2613L14.499 13.9071L14.9976 14.2613ZM11.1535 8.47422C11.223 8.49314 11.2943 8.506 11.3668 8.51495C11.4919 9.27183 11.9025 9.99768 12.5506 10.4912V11.2151L11.6839 11.551C11.6337 11.4455 11.5709 11.3461 11.4963 11.255V10.1088C11.4963 9.53227 11.3749 8.9781 11.1535 8.47422ZM16.7563 8.02438C16.7563 9.26781 15.742 10.2762 14.5044 10.2762C13.1082 10.2762 12.1751 9.19407 12.1751 8.02438V6.03449C13.5165 6.08818 14.9101 5.69063 16.0494 4.98149C16.4324 5.39224 16.6604 5.63087 16.7564 5.74166C16.7563 6.79931 16.7563 7.20768 16.7563 8.02438ZM17.5669 8.51466C17.6389 8.5056 17.71 8.49269 17.779 8.47383C17.5583 8.97453 17.4349 9.52734 17.4349 10.1088V11.2849C17.3696 11.3629 17.3134 11.446 17.2669 11.5331L16.4451 11.2149V10.4412C17.0314 9.96948 17.4432 9.28962 17.5669 8.51466ZM12.8407 12.0146L13.8836 13.3018L13.1724 13.8069C13.172 13.8072 13.1717 13.8075 13.1713 13.8078L12.9456 13.9681L12.1117 12.2969L12.8407 12.0146ZM15.4766 12.852L16.1556 12.0139L16.8862 12.2968L16.0524 13.9681L15.8262 13.8075C15.8259 13.8073 15.8257 13.8071 15.8255 13.8069L15.113 13.3008L15.4766 12.852ZM15.6907 14.7534L15.7362 14.7857C15.895 14.8986 16.0943 14.9358 16.2826 14.8887C16.4713 14.8415 16.6294 14.7146 16.7163 14.5406V14.5405L17.4332 13.1036C17.6795 13.4072 18.0358 13.5919 18.4027 13.6377C18.5323 14.4499 18.9713 15.1431 19.5882 15.6127V16.3366L15.9765 17.7368L15.516 15.0164L15.6907 14.7534ZM19.8782 17.1361L20.9211 18.4233C20.4651 18.7472 20.0067 19.0729 19.9831 19.0896L19.1492 17.4184L19.8782 17.1361ZM23.7938 13.1459C23.7939 14.359 22.8087 15.3977 21.542 15.3977C20.0981 15.3977 19.2126 14.2668 19.2126 13.1459V11.156C20.5445 11.2092 21.9398 10.8169 23.0868 10.103C23.4699 10.5138 23.6978 10.7524 23.7938 10.8632C23.7938 11.9208 23.7938 12.3292 23.7938 13.1459ZM25.0518 12.1803C25.0518 12.4385 24.8921 12.6684 24.6436 12.7587V11.6031C24.9005 11.6967 25.0518 11.9314 25.0518 12.1803ZM18.2845 10.1087C18.2845 8.33392 19.7285 6.89004 21.5032 6.89004C23.278 6.89004 24.7218 8.33398 24.7218 10.1087V10.744C24.7025 10.74 24.6493 10.7308 24.6423 10.7298C24.6365 10.6097 24.6059 10.5363 24.5408 10.4426C24.4291 10.2822 24.236 10.0909 23.6086 9.41649C23.3895 9.18132 23.0282 9.12836 22.7479 9.3116C21.7011 9.99536 20.3787 10.3816 19.1203 10.2999C18.7668 10.2767 18.5107 10.4498 18.4048 10.7364C18.3953 10.7379 18.2904 10.7591 18.2845 10.7605V10.1087H18.2845ZM18.363 11.6275V12.7582C18.1132 12.6681 17.9548 12.4371 17.9548 12.1803C17.9548 11.9303 18.1359 11.725 18.363 11.6275ZM18.0141 7.05883C18.0141 7.2377 17.9367 7.40689 17.8017 7.52295C17.7438 7.57279 17.6777 7.61108 17.606 7.63719V6.48155C17.86 6.57376 18.0141 6.80729 18.0141 7.05883ZM14.4656 1.76855C16.2404 1.76855 17.6842 3.21243 17.6842 4.98721V5.62254C17.665 5.61858 17.6118 5.60935 17.6047 5.60827C17.5984 5.47817 17.5609 5.39819 17.4844 5.29471C17.3707 5.14076 17.161 4.92909 16.571 4.29495C16.3483 4.05575 15.9864 4.00959 15.7103 4.19005C14.6049 4.91221 13.264 5.26367 12.0485 5.17661C11.7512 5.15413 11.4712 5.33379 11.3673 5.61478C11.3578 5.61631 11.2529 5.6375 11.247 5.63891V4.98726H11.2469C11.2469 3.21243 12.6909 1.76855 14.4656 1.76855ZM11.3253 6.50597V7.63725C11.0763 7.54685 10.9172 7.31649 10.9172 7.05878C10.9172 6.81024 11.097 6.60412 11.3253 6.50597ZM10.5684 11.6031C10.806 11.6896 10.9587 11.897 10.9738 12.1434C10.9928 12.4174 10.8245 12.6652 10.5684 12.7582V11.6031ZM10.529 13.6376C10.9297 13.5874 11.2975 13.3763 11.5386 13.0515L12.2816 14.5405C12.2816 14.5405 12.2816 14.5405 12.2817 14.5406C12.3685 14.7146 12.5266 14.8415 12.7153 14.8887C12.9018 14.9353 13.1013 14.8996 13.2617 14.7857L13.3072 14.7534L13.4818 15.0163L13.0215 17.736L9.40759 16.3364V15.563H9.40754C10.0092 15.0779 10.4083 14.3924 10.529 13.6376ZM7.46126 17.8306L6.3626 16.4745V16.0669C6.7183 16.1899 7.10266 16.2474 7.46658 16.2475C7.46664 16.2475 7.46675 16.2475 7.46681 16.2475C7.84664 16.2475 8.225 16.1745 8.55782 16.0493V16.4771L7.46126 17.8306ZM7.96003 19.3827L7.80376 19.618H7.11892L6.96265 19.3827L7.46137 19.0286L7.96003 19.3827ZM9.11793 17.1355L9.8486 17.4184L9.01473 19.0896L8.78851 18.929C8.78829 18.9288 8.78806 18.9286 8.78783 18.9284L8.07535 18.4224L9.11793 17.1355ZM5.13747 13.1459V11.156C6.48602 11.2099 7.88045 10.8071 9.01168 10.103C9.39111 10.5099 9.62254 10.7523 9.71866 10.8632C9.71866 11.9209 9.71866 12.3293 9.71866 13.1459C9.71866 14.3814 8.71131 15.3977 7.46681 15.3977C6.08121 15.3977 5.13747 14.328 5.13747 13.1459ZM5.8031 17.1361L6.84597 18.4233L6.13479 18.9284C6.13439 18.9287 6.13411 18.929 6.13371 18.9293L5.908 19.0896L5.07408 17.4184L5.8031 17.1361ZM3.38501 27.2315V21.0249C3.38501 20.7903 3.19486 20.6001 2.9602 20.6001C2.72554 20.6001 2.5354 20.7903 2.5354 21.0249V27.2315H0.921258C0.881723 27.2315 0.849664 27.1993 0.849664 27.1599V20.4979C0.849664 19.1335 1.9993 18.6134 2.07372 18.5812L4.27823 17.7266L5.24401 19.662C5.24401 19.662 5.24401 19.662 5.24406 19.6621C5.33089 19.8361 5.48898 19.963 5.6777 20.0102C5.86422 20.0568 6.06376 20.0211 6.22411 19.9072L6.2696 19.8749L6.44422 20.1378L5.49521 25.745C5.49447 25.7492 5.49385 25.7534 5.49322 25.7577C5.46592 25.9554 5.52738 26.1591 5.65782 26.3028L6.50194 27.2315H3.38501V27.2315ZM6.34787 25.7987L7.2501 20.4676H7.67258L8.57487 25.7987L7.46137 27.0236L6.34787 25.7987ZM14.0751 27.1599C14.0751 27.1993 14.0431 27.2315 14.0036 27.2315H12.3895V21.0249C12.3895 20.7903 12.1994 20.6001 11.9647 20.6001C11.7301 20.6001 11.5399 20.7903 11.5399 21.0249V27.2315H8.42075L9.26497 26.3027C9.39536 26.1593 9.45681 25.9555 9.42946 25.7577C9.42883 25.7534 9.42821 25.7492 9.42747 25.745L8.47846 20.1378L8.65309 19.8749L8.69857 19.9072C8.81224 19.988 8.94682 20.0301 9.08338 20.0301C9.33255 20.0301 9.5646 19.8905 9.67867 19.6621V19.662L10.6443 17.7266L12.8502 18.5809C13.4932 18.8606 14.0751 19.5819 14.0751 20.4979V27.1599H14.0751ZM14.5 18.9542C14.324 18.6706 14.0897 18.4083 13.8073 18.1844L14.2877 15.3462H14.7102L15.1908 18.1859C14.9008 18.4161 14.6696 18.6808 14.5 18.9542ZM17.4601 27.2315V21.0249C17.4601 20.7903 17.27 20.6001 17.0353 20.6001C16.8007 20.6001 16.6105 20.7903 16.6105 21.0249V27.2315H14.9964C14.9569 27.2315 14.9248 27.1993 14.9248 27.1599V20.4979C14.9248 19.9929 15.0832 19.5277 15.4206 19.137C15.6455 18.879 15.9438 18.6701 16.1489 18.5812L18.3535 17.7265L19.3192 19.662C19.3192 19.662 19.3192 19.662 19.3193 19.6621C19.4061 19.8361 19.5642 19.963 19.7529 20.0102C19.9394 20.0568 20.1389 20.0211 20.2993 19.9072L20.3448 19.8749L20.5194 20.1378L19.5704 25.745C19.5696 25.7492 19.569 25.7534 19.5684 25.7577C19.5411 25.9554 19.6025 26.1591 19.733 26.3028L20.5771 27.2315H17.4601V27.2315ZM20.423 25.7987L21.3253 20.4677H21.7477L22.65 25.7987L21.5365 27.0237L20.423 25.7987Z" fill="white" fill-opacity="0.5"/>
</svg>
